<svg width="150" height="151" viewBox="0 0 150 151" fill="none" xmlns="http://www.w3.org/2000/svg">
<path d="M65.7 89.2C65.7667 97.9333 63.2667 104.767 58.2 109.7C53.1333 114.567 46.1667 117 37.3 117C32.0333 117 27.1667 115.8 22.7 113.4C18.3 111 14.8 107.6 12.2 103.2C9.6 98.8 8.3 93.7333 8.3 88V73.4C8.3 67.7333 9.53333 62.7 12 58.3C14.5333 53.9 17.9667 50.5 22.3 48.1C26.7 45.6333 31.6 44.4 37 44.4C45.8667 44.4 52.8 46.8333 57.8 51.7C62.8667 56.5 65.4333 63.3 65.5 72.1H47.5C47.4333 68.7 46.5 66.0667 44.7 64.2C42.9667 62.3333 40.4 61.4 37 61.4C33.9333 61.4 31.4 62.3667 29.4 64.3C27.4 66.2333 26.4 68.9667 26.4 72.5V88.8C26.4 92.3333 27.4333 95.1 29.5 97.1C31.6333 99.0333 34.2333 100 37.3 100C44.3 100 47.8 96.4 47.8 89.2H65.7ZM138.623 45.9V49.6H90.7234V71.9H129.123V89.5H90.7234V115.5H87.0234V45.9H138.623Z" fill="white"/>
<mask id="path-2-inside-1_78_20" fill="white">
<path d="M0 0.5H150V150.5H0V0.5Z"/>
</mask>
<path d="M150 0.5H152V-1.5H150V0.5ZM150 150.5V152.5H152V150.5H150ZM0 2.5H150V-1.5H0V2.5ZM148 0.5V150.5H152V0.5H148ZM150 148.5H0V152.5H150V148.5Z" fill="white" mask="url(#path-2-inside-1_78_20)"/>
</svg>
