<svg width="232" height="232" viewBox="0 0 232 232" fill="none" xmlns="http://www.w3.org/2000/svg">
<path d="M41.0408 205.186C82.8936 229.889 150.758 229.889 192.616 205.186C234.473 180.482 234.473 140.43 192.616 115.731C150.758 91.0323 82.8936 91.0276 41.0361 115.731C-0.821293 140.434 -0.816655 180.496 41.0408 205.186Z" fill="#F5F5F5"/>
<path d="M181.489 200.007C192.813 200.007 201.993 194.708 201.993 188.17C201.993 181.633 192.813 176.334 181.489 176.334C170.165 176.334 160.985 181.633 160.985 188.17C160.985 194.708 170.165 200.007 181.489 200.007Z" fill="#E0E0E0"/>
<path d="M168.627 35.793L172.186 37.8485C172.166 37.6945 172.156 37.5396 172.153 37.3845V36.3451C172.153 34.4891 173.443 33.7653 175.03 34.684C175.714 35.1039 176.299 35.6656 176.747 36.3312C177.007 34.0112 178.816 33.1667 181.016 34.4334C183.391 35.8254 185.317 39.143 185.317 41.8899V43.4304C185.333 44.0455 185.209 44.6563 184.955 45.2168L187.906 46.9243C188.373 47.229 188.762 47.6403 189.039 48.1242C189.317 48.6082 189.475 49.1511 189.502 49.7083C189.502 50.7245 188.788 51.1374 187.906 50.6363L168.627 39.5003C168.16 39.1956 167.771 38.7844 167.494 38.3004C167.216 37.8164 167.058 37.2735 167.031 36.7163C167.04 35.6955 167.745 35.264 168.627 35.793Z" fill="#EBEBEB"/>
<path d="M153.398 46.1587L156.085 47.7085C156.07 47.5915 156.063 47.4737 156.062 47.3559V46.5763C156.062 45.1843 157.036 44.6322 158.233 45.3235C158.75 45.6393 159.191 46.0636 159.528 46.5671C159.723 44.8271 161.087 44.1775 162.748 45.1333C163.694 45.7501 164.48 46.5812 165.045 47.5591C165.609 48.537 165.935 49.6342 165.996 50.7616V51.9263C166.008 52.3898 165.915 52.85 165.722 53.2719L167.949 54.5618C168.3 54.7896 168.592 55.0971 168.802 55.4591C169.011 55.8211 169.133 56.2274 169.156 56.6451C169.156 57.4154 168.617 57.7263 167.949 57.3411L153.398 48.9381C153.049 48.7111 152.757 48.4052 152.548 48.0449C152.338 47.6846 152.216 47.2801 152.192 46.864C152.192 46.0845 152.735 45.7736 153.398 46.1587Z" fill="#EBEBEB"/>
<path d="M34.2803 133.92C34.0158 134.064 29.1763 135.442 27.3667 133.066C25.5571 130.69 28.5499 126.992 26.8656 125.642C25.1813 124.292 20.4578 125.642 19.321 122.779C18.1842 119.916 21.5528 118.673 19.6597 115.782C18.4672 113.963 15.5347 112.942 15.2749 111.258C14.848 108.446 19.5066 107.152 23.4969 109.81C27.4873 112.469 29.8955 111.249 31.1622 111.068C32.4289 110.887 35.1526 111.286 35.0645 115.708C34.9763 120.13 34.2803 133.92 34.2803 133.92Z" fill="#6A8E91"/>
<path d="M34.6004 127.6C34.5375 127.601 34.4764 127.578 34.4287 127.537C34.3809 127.497 34.3496 127.44 34.3406 127.377C32.9486 118.951 23.1535 112.088 18.0588 110.618C17.9911 110.599 17.9338 110.553 17.8994 110.492C17.8651 110.431 17.8565 110.358 17.8755 110.29C17.8946 110.223 17.9398 110.165 18.0011 110.131C18.0625 110.097 18.135 110.088 18.2027 110.107C23.4134 111.615 33.4358 118.645 34.8603 127.275C34.871 127.344 34.8541 127.414 34.8133 127.471C34.7724 127.527 34.7109 127.565 34.6422 127.577L34.6004 127.6Z" fill="white"/>
<path d="M23.0468 120.547C22.9885 120.549 22.9311 120.532 22.884 120.497C22.8369 120.462 22.8029 120.413 22.7873 120.357C22.7718 120.3 22.7757 120.24 22.7983 120.187C22.821 120.133 22.8611 120.088 22.9123 120.06C23.07 119.963 26.8377 117.74 30.5544 118.789C30.6217 118.809 30.6786 118.855 30.7132 118.916C30.7478 118.978 30.7573 119.05 30.74 119.118C30.7205 119.185 30.6755 119.241 30.6147 119.275C30.5539 119.309 30.4822 119.318 30.4152 119.299C26.912 118.32 23.2 120.492 23.2 120.515C23.1532 120.54 23.1 120.551 23.0468 120.547Z" fill="white"/>
<path d="M36.1595 137.158C36.2091 137.833 36.4168 138.487 36.7659 139.066C37.1149 139.646 37.5955 140.135 38.1687 140.494L94.4658 172.974C95.0885 173.29 95.7768 173.455 96.4749 173.455C97.1731 173.455 97.8615 173.29 98.4841 172.974L175.508 128.5C176.115 128.18 176.623 127.7 176.978 127.112C177.332 126.524 177.52 125.85 177.52 125.164C177.52 124.477 177.332 123.804 176.978 123.216C176.623 122.628 176.115 122.148 175.508 121.828L119.216 89.3478C118.593 89.0319 117.905 88.8673 117.206 88.8673C116.508 88.8673 115.82 89.0319 115.197 89.3478L38.1733 133.822C37.5992 134.181 37.1178 134.67 36.7679 135.25C36.4181 135.829 36.2096 136.483 36.1595 137.158Z" fill="#37474F"/>
<path d="M96.475 169.128V173.476C95.7767 173.495 95.085 173.335 94.4658 173.012L38.1687 140.532C37.5801 140.222 37.0843 139.761 36.7317 139.197C36.3792 138.633 36.1825 137.985 36.1617 137.32C36.141 136.655 36.2969 135.996 36.6136 135.411C36.9303 134.826 37.3964 134.336 37.9645 133.989C37.0644 134.634 37.134 135.581 38.1687 136.179L94.4658 168.659C95.0846 168.985 95.7762 169.146 96.475 169.128Z" fill="#263238"/>
<path d="M34.2757 133.892C33.7155 133.513 33.2529 133.007 32.9255 132.415C32.5982 131.823 32.4153 131.162 32.3918 130.486V63.3035C32.4299 62.6064 32.6317 61.9281 32.9807 61.3235C33.3298 60.7189 33.8163 60.205 34.401 59.8235L111.425 15.3538C112.023 15.0372 112.686 14.8655 113.363 14.8526C114.039 14.8397 114.709 14.9859 115.318 15.2795C115.878 15.6596 116.342 16.1665 116.67 16.759C116.998 17.3516 117.182 18.0131 117.206 18.6899V85.8678C117.169 86.5651 116.968 87.2437 116.618 87.8484C116.269 88.4531 115.782 88.9668 115.197 89.3478L38.1733 133.822C37.575 134.14 36.9101 134.312 36.2328 134.324C35.5555 134.336 34.8849 134.188 34.2757 133.892Z" fill="#455A64"/>
<path d="M37.932 133.943C37.356 134.203 36.73 134.333 36.0982 134.324C35.4664 134.315 34.8442 134.168 34.2757 133.892C33.7163 133.512 33.2543 133.006 32.927 132.414C32.5997 131.822 32.4164 131.162 32.3918 130.486V63.3036C32.4146 62.6049 32.6176 61.924 32.9811 61.3269L36.7488 63.4984C36.388 64.0967 36.1852 64.7769 36.1595 65.4751V132.662C36.1595 133.85 36.9344 134.384 37.932 133.943Z" fill="#263238"/>
<path d="M36.1595 65.4797V132.662C36.1595 133.943 37.0597 134.463 38.1687 133.822L115.193 89.3478C115.778 88.9668 116.265 88.4531 116.614 87.8484C116.963 87.2437 117.164 86.5651 117.202 85.8678V18.6899C117.202 17.4093 116.302 16.8896 115.193 17.5299L38.1687 61.9997C37.5843 62.3815 37.0979 62.8954 36.7489 63.5C36.3999 64.1045 36.198 64.7827 36.1595 65.4797Z" fill="#37474F"/>
<path d="M38.1687 136.142L94.4658 168.622C95.0884 168.938 95.7767 169.103 96.4749 169.103C97.1731 169.103 97.8614 168.938 98.484 168.622L175.508 124.148C176.617 123.507 176.617 122.468 175.508 121.828L119.216 89.3478C118.593 89.0319 117.905 88.8673 117.206 88.8673C116.508 88.8673 115.82 89.0319 115.197 89.3478L38.1733 133.822C37.0597 134.462 37.0597 135.488 38.1687 136.142Z" fill="#455A64"/>
<path d="M39.2497 65.7303L113.49 22.8659C114.158 22.4808 114.696 22.7917 114.696 23.5619V81.7151C114.674 82.1336 114.553 82.5409 114.343 82.9037C114.134 83.2666 113.841 83.5748 113.49 83.8031L39.2497 126.672C38.5816 127.057 38.0433 126.746 38.0433 125.976V67.8183C38.0656 67.3998 38.1865 66.9925 38.3962 66.6296C38.6059 66.2668 38.8983 65.9586 39.2497 65.7303Z" fill="white"/>
<path opacity="0.6" d="M39.2497 65.7303L113.49 22.8659C114.158 22.4808 114.696 22.7917 114.696 23.5619V81.7151C114.674 82.1336 114.553 82.5409 114.343 82.9037C114.134 83.2666 113.841 83.5748 113.49 83.8031L39.2497 126.672C38.5816 127.057 38.0433 126.746 38.0433 125.976V67.8183C38.0656 67.3998 38.1865 66.9925 38.3962 66.6296C38.6059 66.2668 38.8983 65.9586 39.2497 65.7303Z" fill="#6A8E91"/>
<path d="M76.2212 62.0507C78.1979 60.9093 79.8033 61.8373 79.8033 64.1202C79.7353 65.3622 79.3755 66.5708 78.7532 67.6478C78.1308 68.7249 77.2634 69.6401 76.2212 70.3192C74.2446 71.4607 72.6438 70.5373 72.6438 68.2544C72.7106 67.012 73.0693 65.8028 73.6909 64.7249C74.3124 63.647 75.1793 62.7309 76.2212 62.0507Z" fill="#F0F0F0"/>
<path d="M83.2787 74.2632C83.2787 70.5141 80.6432 68.8483 77.3952 70.7229L75.3675 71.92C72.1195 73.776 69.484 78.3557 69.484 82.128V83.1395L83.2787 75.1773V74.2632Z" fill="#F0F0F0"/>
<path d="M90.2526 76.096C90.1227 75.7944 89.7886 75.7201 89.4128 75.9336L65.3219 89.8536C65.0632 90.0238 64.8479 90.2522 64.6933 90.5205C64.5386 90.7888 64.4488 91.0895 64.431 91.3987V94.2291C64.431 94.6931 64.7187 94.9483 65.1085 94.8416L65.1734 94.8184C65.2242 94.798 65.2738 94.7747 65.3219 94.7488L89.4128 80.8288C89.6725 80.6596 89.8886 80.4315 90.0434 80.163C90.1982 79.8944 90.2874 79.5931 90.3037 79.2836V76.4672C90.308 76.3414 90.2907 76.2159 90.2526 76.096Z" fill="#F0F0F0"/>
<path d="M67.498 90.2061C67.962 89.9324 68.3472 90.1551 68.3472 90.6933C68.3322 90.9876 68.2473 91.2741 68.0997 91.529C67.952 91.784 67.7458 92.0001 67.498 92.1596C67.034 92.4287 66.6536 92.2106 66.6536 91.6677C66.6688 91.3747 66.7532 91.0895 66.9 90.8354C67.0468 90.5813 67.2518 90.3657 67.498 90.2061Z" fill="#6A8E91"/>
<path d="M70.3007 88.5869C70.7647 88.3178 71.1451 88.5359 71.1451 89.0788C71.1299 89.3718 71.0455 89.6571 70.8987 89.9111C70.7519 90.1652 70.5469 90.3809 70.3007 90.5404C69.8367 90.8141 69.4515 90.5914 69.4515 90.0764C69.4629 89.7781 69.546 89.487 69.6938 89.2277C69.8416 88.9684 70.0498 88.7486 70.3007 88.5869Z" fill="#6A8E91"/>
<path d="M73.0985 86.9721C73.5625 86.703 73.943 86.921 73.943 87.4593C73.9285 87.7531 73.8444 88.0393 73.6976 88.2942C73.5507 88.5492 73.3454 88.7655 73.0985 88.9255C72.6345 89.1946 72.2494 88.9766 72.2494 88.4383C72.2644 88.1441 72.3492 87.8576 72.4969 87.6027C72.6445 87.3477 72.8507 87.1315 73.0985 86.9721Z" fill="#6A8E91"/>
<path d="M75.8965 85.376C76.3605 85.1022 76.7456 85.3249 76.7456 85.84C76.7306 86.1342 76.6458 86.4207 76.4981 86.6756C76.3505 86.9306 76.1442 87.1467 75.8965 87.3062C75.4325 87.5753 75.052 87.3572 75.052 86.8422C75.0665 86.5484 75.1506 86.2622 75.2974 86.0072C75.4443 85.7523 75.6496 85.5359 75.8965 85.376Z" fill="#6A8E91"/>
<path d="M78.6945 83.7381C79.1585 83.4689 79.5436 83.687 79.5436 84.2299C79.5267 84.5237 79.4411 84.8095 79.2936 85.0642C79.1462 85.3188 78.9409 85.5353 78.6945 85.6961C78.2305 85.9653 77.85 85.7472 77.85 85.2043C77.8663 84.9109 77.9512 84.6254 78.0979 84.3708C78.2445 84.1161 78.4489 83.8994 78.6945 83.7381Z" fill="#6A8E91"/>
<path d="M81.4969 82.128C81.9609 81.8589 82.3414 82.077 82.3414 82.592C82.327 82.8858 82.2428 83.172 82.096 83.427C81.9492 83.6819 81.7438 83.8983 81.4969 84.0583C81.0329 84.3274 80.6478 84.1093 80.6478 83.5943C80.6628 83.3 80.7477 83.0135 80.8953 82.7586C81.043 82.5036 81.2492 82.2875 81.4969 82.128Z" fill="#6A8E91"/>
<path d="M84.2949 80.5086C84.7589 80.2395 85.1394 80.4576 85.1394 80.9958C85.1249 81.2896 85.0408 81.5758 84.894 81.8308C84.7471 82.0857 84.5418 82.3021 84.2949 82.462C83.8309 82.7312 83.4504 82.5131 83.4504 81.9748C83.4649 81.681 83.549 81.3948 83.6959 81.1399C83.8427 80.885 84.048 80.6686 84.2949 80.5086Z" fill="#6A8E91"/>
<path d="M87.0928 78.88C87.5568 78.6108 87.9419 78.8289 87.9419 79.3718C87.9251 79.6656 87.8394 79.9514 87.692 80.2061C87.5445 80.4607 87.3392 80.6772 87.0928 80.838C86.6288 81.1072 86.2483 80.8891 86.2483 80.3462C86.2653 80.053 86.3505 79.7677 86.4971 79.5132C86.6437 79.2587 86.8477 79.0418 87.0928 78.88Z" fill="#6A8E91"/>
<path d="M44.7018 134.402L116.2 93.1061C116.511 92.9483 116.855 92.8661 117.204 92.8661C117.553 92.8661 117.897 92.9483 118.209 93.1061L121.865 95.2173C121.986 95.2584 122.091 95.3365 122.166 95.4405C122.241 95.5446 122.281 95.6693 122.281 95.7973C122.281 95.9253 122.241 96.0501 122.166 96.1541C122.091 96.2581 121.986 96.3362 121.865 96.3773L50.358 137.669C50.0466 137.826 49.7025 137.909 49.3534 137.909C49.0044 137.909 48.6602 137.826 48.3488 137.669L44.7018 135.562C44.5806 135.521 44.4753 135.443 44.4008 135.339C44.3262 135.235 44.2861 135.11 44.2861 134.982C44.2861 134.854 44.3262 134.729 44.4008 134.625C44.4753 134.521 44.5806 134.443 44.7018 134.402Z" fill="#37474F"/>
<path d="M54.1256 139.845L125.623 98.5488C125.935 98.3911 126.279 98.3089 126.628 98.3089C126.977 98.3089 127.321 98.3911 127.632 98.5488L150.127 111.541C150.248 111.582 150.354 111.66 150.428 111.764C150.503 111.868 150.543 111.993 150.543 112.121C150.543 112.249 150.503 112.374 150.428 112.478C150.354 112.582 150.248 112.66 150.127 112.701L78.7129 153.932C78.4004 154.089 78.0557 154.17 77.7061 154.17C77.3564 154.17 77.0117 154.089 76.6992 153.932L54.1302 140.996C54.0099 140.955 53.9053 140.878 53.8311 140.775C53.7568 140.672 53.7166 140.549 53.7161 140.422C53.7156 140.295 53.7548 140.171 53.8282 140.068C53.9016 139.964 54.0056 139.886 54.1256 139.845Z" fill="#263238"/>
<path d="M118.218 117.137L120.459 115.842C120.552 115.786 120.547 115.694 120.459 115.638L117.856 114.144C117.801 114.115 117.739 114.101 117.677 114.101C117.615 114.101 117.554 114.115 117.499 114.144L115.258 115.438C115.165 115.489 115.169 115.582 115.258 115.643L117.847 117.137C117.904 117.168 117.967 117.184 118.032 117.184C118.097 117.184 118.161 117.168 118.218 117.137ZM113.801 112L111.564 113.29C111.467 113.346 111.471 113.439 111.564 113.499L114.153 114.993C114.209 115.02 114.27 115.035 114.332 115.035C114.394 115.035 114.455 115.02 114.51 114.993L116.752 113.698C116.844 113.643 116.84 113.55 116.752 113.494L114.144 112.009C114.091 111.982 114.033 111.967 113.973 111.965C113.914 111.963 113.855 111.975 113.801 112ZM106.567 116.176L102.781 118.362C102.683 118.417 102.692 118.51 102.781 118.57L105.365 120.065C105.421 120.092 105.482 120.106 105.544 120.106C105.606 120.106 105.667 120.092 105.722 120.065L109.513 117.879C109.606 117.823 109.601 117.731 109.513 117.675L106.924 116.176C106.869 116.149 106.807 116.135 106.745 116.135C106.684 116.135 106.622 116.149 106.567 116.176ZM110.529 113.889L108.288 115.183C108.195 115.234 108.2 115.327 108.288 115.387L110.896 116.881C110.952 116.909 111.013 116.923 111.075 116.923C111.137 116.923 111.198 116.909 111.253 116.881L113.49 115.587C113.587 115.531 113.583 115.438 113.49 115.383L110.896 113.898C110.84 113.866 110.778 113.849 110.714 113.848C110.65 113.846 110.587 113.86 110.529 113.889ZM101.746 118.96L99.5094 120.25C99.412 120.306 99.4166 120.399 99.5094 120.459L102.099 121.953C102.154 121.981 102.215 121.996 102.277 121.996C102.339 121.996 102.401 121.981 102.456 121.953L104.697 120.663C104.79 120.607 104.785 120.515 104.697 120.454L102.108 118.96C102.052 118.932 101.99 118.917 101.927 118.917C101.864 118.917 101.802 118.932 101.746 118.96ZM98.4747 120.849L96.2382 122.139C96.1408 122.194 96.1454 122.287 96.2382 122.347L98.832 123.841C98.8875 123.869 98.9486 123.883 99.0106 123.883C99.0725 123.883 99.1337 123.869 99.1892 123.841L101.43 122.547C101.523 122.491 101.519 122.398 101.43 122.343L98.832 120.858C98.7775 120.828 98.7166 120.812 98.6544 120.81C98.5923 120.808 98.5306 120.822 98.4747 120.849ZM108.655 126.927L110.896 125.633C110.989 125.577 110.984 125.484 110.896 125.428L108.307 123.934C108.252 123.906 108.19 123.891 108.128 123.891C108.066 123.891 108.005 123.906 107.95 123.934L105.713 125.229C105.616 125.28 105.625 125.373 105.713 125.433L108.298 126.927C108.353 126.956 108.414 126.97 108.476 126.97C108.538 126.97 108.6 126.956 108.655 126.927ZM105.407 128.816L107.648 127.521C107.741 127.465 107.736 127.377 107.648 127.317L105.059 125.823C105.004 125.794 104.942 125.779 104.88 125.779C104.818 125.779 104.757 125.794 104.702 125.823L102.465 127.117C102.368 127.173 102.372 127.261 102.465 127.321L105.054 128.816C105.106 128.84 105.162 128.852 105.219 128.852C105.276 128.852 105.332 128.84 105.384 128.816H105.407ZM102.136 130.704L104.377 129.409C104.47 129.358 104.465 129.266 104.377 129.205L101.788 127.711C101.732 127.683 101.671 127.668 101.609 127.668C101.547 127.668 101.486 127.683 101.43 127.711L99.1567 128.992C99.0593 129.048 99.0639 129.14 99.1567 129.196L101.746 130.69C101.801 130.722 101.863 130.74 101.927 130.743C101.991 130.745 102.055 130.732 102.112 130.704H102.136ZM98.8876 132.593L101.129 131.298C101.222 131.247 101.217 131.154 101.129 131.094L98.5396 129.6C98.4841 129.572 98.4229 129.558 98.361 129.558C98.299 129.558 98.2379 129.572 98.1824 129.6L95.9412 130.894C95.8484 130.95 95.8531 131.043 95.9412 131.098L98.5304 132.593C98.5781 132.613 98.6294 132.623 98.6812 132.623C98.7329 132.623 98.7842 132.613 98.832 132.593H98.8876ZM114.993 119.025L117.23 117.731C117.327 117.675 117.322 117.587 117.23 117.526L114.608 116.032C114.553 116.004 114.491 115.989 114.429 115.989C114.367 115.989 114.306 116.004 114.251 116.032L112.01 117.327C111.917 117.383 111.921 117.471 112.01 117.531L114.608 119.016C114.66 119.043 114.718 119.058 114.776 119.059C114.835 119.061 114.893 119.049 114.947 119.025H114.993ZM111.977 125.057L116.928 122.153C117.021 122.097 117.016 122.004 116.928 121.948L110.622 118.32C110.567 118.291 110.506 118.277 110.444 118.277C110.381 118.277 110.32 118.291 110.265 118.32L107.685 119.809C107.588 119.865 107.592 119.958 107.685 120.018L111.017 121.939C111.119 121.999 111.123 122.092 111.017 122.143L108.952 123.336C108.854 123.391 108.864 123.484 108.952 123.545L111.541 125.039C111.601 125.072 111.668 125.089 111.736 125.089C111.804 125.089 111.871 125.072 111.931 125.039L111.977 125.057ZM95.2731 122.737L93.032 124.032C92.9392 124.083 92.9438 124.176 93.032 124.236L95.584 125.744C95.6395 125.771 95.7006 125.786 95.7626 125.786C95.8245 125.786 95.8857 125.771 95.9412 125.744L98.1777 124.449C98.2751 124.394 98.2705 124.301 98.1777 124.245L95.584 122.746C95.5266 122.713 95.4615 122.694 95.3949 122.692C95.3283 122.691 95.2624 122.706 95.2035 122.737H95.2731ZM92.0019 124.626L89.7608 125.92C89.668 125.976 89.6726 126.064 89.7608 126.124L92.3499 127.618C92.4051 127.647 92.4664 127.662 92.5285 127.662C92.5907 127.662 92.6519 127.647 92.7072 127.618L94.9436 126.324C95.0411 126.268 95.0364 126.175 94.9436 126.12L92.3545 124.626C92.2916 124.585 92.2183 124.564 92.1434 124.564C92.0685 124.564 91.9952 124.585 91.9323 124.626H92.0019ZM75.6505 145.807C75.7058 145.836 75.767 145.851 75.8292 145.851C75.8913 145.851 75.9526 145.836 76.0078 145.807L78.2489 144.513C78.3417 144.457 78.3371 144.364 78.2489 144.309L75.6598 142.814C75.6046 142.786 75.5433 142.771 75.4812 142.771C75.419 142.771 75.3578 142.786 75.3025 142.814L73.066 144.109C72.9686 144.16 72.9732 144.253 73.066 144.313L75.6505 145.807ZM65.8276 139.738L63.5169 141.056C63.4241 141.107 63.4288 141.2 63.5169 141.26L66.106 142.754C66.1616 142.782 66.2227 142.796 66.2847 142.796C66.3466 142.796 66.4078 142.782 66.4633 142.754L68.6998 141.46C68.7972 141.404 68.7926 141.311 68.6998 141.255L66.1107 139.761C66.0579 139.73 65.9984 139.711 65.9371 139.707C65.8759 139.703 65.8145 139.714 65.758 139.738H65.8276ZM71.094 144.169C71.1493 144.198 71.2105 144.213 71.2727 144.213C71.3348 144.213 71.3961 144.198 71.4513 144.169L73.6878 142.875C73.7852 142.819 73.776 142.726 73.6878 142.671L71.0987 141.177C71.0434 141.148 70.9822 141.133 70.92 141.133C70.8579 141.133 70.7966 141.148 70.7414 141.177L68.5049 142.471C68.4121 142.527 68.4168 142.615 68.5049 142.675L71.094 144.169ZM81.4273 146.953L83.6684 145.659C83.7612 145.603 83.7566 145.51 83.6684 145.455L81.0793 143.961C81.0241 143.932 80.9628 143.917 80.9007 143.917C80.8385 143.917 80.7773 143.932 80.722 143.961L78.416 145.232C78.3185 145.283 78.3232 145.376 78.416 145.436L81.0051 146.93C81.0579 146.961 81.1171 146.98 81.1782 146.985C81.2393 146.99 81.3007 146.98 81.3577 146.958L81.4273 146.953ZM77.7988 148.809C77.8541 148.838 77.9153 148.853 77.9775 148.853C78.0396 148.853 78.1009 148.838 78.1561 148.809L80.3972 147.515C80.49 147.459 80.4854 147.366 80.3972 147.311L77.8081 145.817C77.7529 145.788 77.6916 145.773 77.6295 145.773C77.5673 145.773 77.5061 145.788 77.4508 145.817L75.2097 147.111C75.1169 147.162 75.1216 147.255 75.2097 147.315L77.7988 148.809ZM69.0988 137.822L66.8577 139.112C66.7649 139.167 66.7696 139.26 66.8577 139.321L69.4468 140.815C69.5024 140.842 69.5635 140.856 69.6255 140.856C69.6874 140.856 69.7486 140.842 69.8041 140.815L72.0406 139.52C72.138 139.464 72.1334 139.372 72.0406 139.316L69.4515 137.817C69.385 137.783 69.3103 137.768 69.2358 137.774C69.1612 137.779 69.0897 137.806 69.0292 137.85L69.0988 137.822ZM85.376 128.403L83.1348 129.697C83.042 129.753 83.0467 129.846 83.1348 129.901L85.724 131.395C85.7792 131.424 85.8404 131.439 85.9026 131.439C85.9647 131.439 86.026 131.424 86.0812 131.395L88.3177 130.101C88.4152 130.05 88.4059 129.957 88.3177 129.897L85.7286 128.403C85.6738 128.375 85.6135 128.361 85.5523 128.361C85.4911 128.361 85.4307 128.375 85.376 128.403ZM72.3004 135.952L70.064 137.251C69.9665 137.307 69.9712 137.4 70.064 137.46L72.6531 138.954C72.7083 138.982 72.7696 138.997 72.8317 138.997C72.8939 138.997 72.9551 138.982 73.0104 138.954L75.2515 137.664C75.3443 137.608 75.3396 137.516 75.2515 137.455L72.6577 135.952C72.6022 135.924 72.541 135.91 72.4791 135.91C72.4171 135.91 72.356 135.924 72.3004 135.952ZM88.6611 126.505L86.42 127.799C86.3272 127.855 86.3318 127.948 86.42 128.004L89.0091 129.498C89.0643 129.526 89.1256 129.541 89.1877 129.541C89.2499 129.541 89.3111 129.526 89.3664 129.498L91.6028 128.203C91.7003 128.147 91.691 128.059 91.6028 127.999L89.0137 126.505C88.9583 126.479 88.8976 126.466 88.8363 126.467C88.775 126.469 88.715 126.485 88.6611 126.514V126.505ZM82.128 130.291L79.8915 131.586C79.794 131.641 79.8033 131.734 79.8915 131.79L82.4806 133.284C82.5358 133.312 82.5971 133.327 82.6592 133.327C82.7214 133.327 82.7826 133.312 82.8379 133.284L85.0744 131.994C85.1672 131.938 85.1625 131.845 85.0744 131.785L82.4852 130.291C82.4297 130.264 82.3686 130.249 82.3066 130.249C82.2446 130.249 82.1835 130.264 82.128 130.291ZM78.8568 132.184L76.6203 133.474C76.5228 133.53 76.5321 133.623 76.6203 133.678L79.2048 135.177C79.2603 135.204 79.3214 135.219 79.3834 135.219C79.4454 135.219 79.5065 135.204 79.562 135.177L81.8032 133.887C81.896 133.831 81.8913 133.739 81.8032 133.678L79.214 132.184C79.157 132.153 79.0933 132.137 79.0284 132.137C78.9636 132.137 78.8998 132.153 78.8428 132.184H78.8568ZM75.6088 134.073L73.3723 135.363C73.2748 135.418 73.2795 135.511 73.3723 135.571L75.9614 137.065C76.017 137.093 76.0781 137.107 76.14 137.107C76.202 137.107 76.2631 137.093 76.3187 137.065L78.5598 135.776C78.6526 135.72 78.648 135.627 78.5598 135.567L75.9289 134.096C75.8734 134.068 75.8122 134.054 75.7503 134.054C75.6883 134.054 75.6272 134.068 75.5716 134.096L75.6088 134.073ZM92.3128 136.369L94.5492 135.08C94.6467 135.024 94.6374 134.931 94.5492 134.871L91.9601 133.377C91.9049 133.348 91.8436 133.333 91.7815 133.333C91.7193 133.333 91.6581 133.348 91.6028 133.377L89.3617 134.667C89.2689 134.722 89.2736 134.815 89.3617 134.875L91.9508 136.369C92.0052 136.395 92.0646 136.409 92.1248 136.409C92.185 136.409 92.2445 136.395 92.2988 136.369H92.3128ZM121.048 107.824L118.784 109.119C118.691 109.17 118.696 109.263 118.784 109.323L121.373 110.817C121.429 110.844 121.49 110.859 121.552 110.859C121.614 110.859 121.675 110.844 121.73 110.817L123.967 109.522C124.064 109.467 124.06 109.374 123.967 109.318L121.378 107.824C121.324 107.798 121.266 107.784 121.206 107.784C121.146 107.784 121.088 107.798 121.034 107.824H121.048ZM117.086 110.112L114.849 111.402C114.752 111.457 114.756 111.55 114.849 111.61L117.438 113.105C117.494 113.133 117.555 113.148 117.617 113.148C117.679 113.148 117.74 113.133 117.796 113.105L120.037 111.815C120.13 111.759 120.125 111.666 120.037 111.606L117.448 110.112C117.39 110.081 117.325 110.065 117.26 110.065C117.194 110.065 117.13 110.081 117.072 110.112H117.086ZM124.319 105.936L122.078 107.226C121.986 107.281 121.99 107.374 122.078 107.434L124.667 108.929C124.723 108.956 124.784 108.97 124.846 108.97C124.908 108.97 124.969 108.956 125.025 108.929L127.261 107.634C127.359 107.578 127.354 107.485 127.261 107.43L124.672 105.931C124.615 105.903 124.552 105.889 124.488 105.889C124.425 105.89 124.362 105.906 124.306 105.936H124.319ZM107.37 123.424L109.611 122.129C109.703 122.074 109.699 121.981 109.611 121.925L107.022 120.426C106.966 120.399 106.905 120.385 106.843 120.385C106.781 120.385 106.72 120.399 106.664 120.426L104.4 121.689C104.307 121.744 104.312 121.837 104.4 121.897L106.989 123.391C107.045 123.428 107.109 123.45 107.175 123.455C107.242 123.461 107.308 123.45 107.37 123.424ZM127.934 104.075C127.878 104.048 127.817 104.033 127.755 104.033C127.693 104.033 127.632 104.048 127.577 104.075L125.34 105.328C125.243 105.384 125.247 105.476 125.34 105.537L127.929 107.031C127.985 107.059 128.046 107.074 128.108 107.074C128.17 107.074 128.231 107.059 128.287 107.031L130.528 105.741C130.621 105.685 130.616 105.592 130.528 105.532L127.934 104.075ZM95.584 134.481L97.8204 133.191C97.9179 133.135 97.9132 133.043 97.8204 132.982L95.2313 131.488C95.1758 131.461 95.1146 131.447 95.0527 131.447C94.9907 131.447 94.9296 131.461 94.874 131.488L92.6329 132.783C92.5401 132.838 92.5448 132.931 92.6329 132.987L95.222 134.486C95.2786 134.513 95.3407 134.527 95.4035 134.526C95.4664 134.525 95.5281 134.51 95.584 134.481ZM135.706 111.318L137.942 110.024C138.04 109.968 138.035 109.875 137.942 109.819L135.353 108.325C135.298 108.297 135.237 108.282 135.175 108.282C135.113 108.282 135.051 108.297 134.996 108.325L132.755 109.62C132.662 109.671 132.667 109.764 132.755 109.824L135.344 111.318C135.398 111.345 135.458 111.359 135.518 111.359C135.578 111.359 135.638 111.345 135.692 111.318H135.706ZM128.746 111.072L130.982 109.778C131.08 109.722 131.075 109.629 130.982 109.573L128.393 108.079C128.338 108.051 128.277 108.036 128.215 108.036C128.153 108.036 128.091 108.051 128.036 108.079L125.744 109.365C125.651 109.416 125.656 109.509 125.744 109.569L128.333 111.063C128.391 111.099 128.458 111.118 128.527 111.12C128.595 111.121 128.663 111.105 128.723 111.072H128.746ZM131.655 106.186C131.6 106.159 131.539 106.145 131.477 106.145C131.415 106.145 131.354 106.159 131.298 106.186L129.057 107.476C128.964 107.532 128.969 107.625 129.057 107.685L131.646 109.179C131.702 109.207 131.763 109.221 131.825 109.221C131.887 109.221 131.948 109.207 132.003 109.179L134.244 107.885C134.337 107.829 134.333 107.736 134.244 107.68L131.655 106.186ZM132.342 105.792L138.629 109.42C138.685 109.448 138.746 109.462 138.808 109.462C138.87 109.462 138.931 109.448 138.986 109.42L141.228 108.126C141.32 108.07 141.316 107.977 141.228 107.922L134.94 104.289C134.885 104.261 134.824 104.247 134.762 104.247C134.7 104.247 134.639 104.261 134.583 104.289L132.347 105.578C132.212 105.639 132.24 105.732 132.319 105.792H132.342ZM124.756 109.968L122.496 111.253C122.403 111.309 122.408 111.397 122.496 111.457L125.085 112.951C125.14 112.98 125.202 112.995 125.264 112.995C125.326 112.995 125.387 112.98 125.442 112.951L127.679 111.657C127.776 111.601 127.772 111.513 127.679 111.453L125.09 109.968C125.034 109.939 124.973 109.925 124.911 109.925C124.849 109.925 124.788 109.939 124.732 109.968H124.756ZM100.131 124.185L97.89 125.479C97.7972 125.535 97.8019 125.623 97.89 125.684L100.479 127.178C100.534 127.206 100.596 127.221 100.658 127.221C100.72 127.221 100.781 127.206 100.836 127.178L103.073 125.883C103.17 125.827 103.161 125.739 103.073 125.679L100.488 124.185C100.431 124.151 100.366 124.132 100.299 124.131C100.233 124.129 100.167 124.144 100.108 124.176L100.131 124.185ZM132.064 113.216C132.119 113.244 132.18 113.259 132.242 113.259C132.304 113.259 132.366 113.244 132.421 113.216L134.657 111.921C134.755 111.866 134.75 111.777 134.657 111.717L132.068 110.223C132.013 110.195 131.952 110.18 131.89 110.18C131.827 110.18 131.766 110.195 131.711 110.223L129.456 111.499C129.363 111.555 129.368 111.643 129.456 111.703L132.064 113.216ZM103.379 122.287L101.152 123.582C101.059 123.633 101.064 123.725 101.152 123.786L103.741 125.28C103.796 125.308 103.858 125.323 103.92 125.323C103.982 125.323 104.043 125.308 104.098 125.28L106.335 123.985C106.432 123.93 106.428 123.837 106.335 123.781L103.746 122.287C103.689 122.257 103.626 122.241 103.562 122.241C103.499 122.241 103.436 122.257 103.379 122.287ZM78.8521 143.919C78.9077 143.946 78.9688 143.96 79.0308 143.96C79.0927 143.96 79.1538 143.946 79.2094 143.919L81.4505 142.624C81.5433 142.569 81.5387 142.476 81.4505 142.42L78.8614 140.926C78.8062 140.897 78.7449 140.883 78.6828 140.883C78.6206 140.883 78.5594 140.897 78.5041 140.926L76.2676 142.221C76.1702 142.272 76.1748 142.364 76.2676 142.425L78.8521 143.919ZM73.9337 139.279L71.6926 140.592C71.5998 140.643 71.6044 140.736 71.6926 140.796L74.2817 142.29C74.3373 142.318 74.3984 142.332 74.4604 142.332C74.5223 142.332 74.5834 142.318 74.639 142.29L76.8755 140.996C76.9729 140.94 76.9636 140.847 76.8755 140.791L74.291 139.297C74.2365 139.267 74.1756 139.251 74.1135 139.249C74.0513 139.248 73.9897 139.261 73.9337 139.288V139.279ZM82.4806 142.03L84.7217 140.736C84.8145 140.68 84.8099 140.587 84.7217 140.532L82.128 139.042C82.0724 139.015 82.0113 139 81.9493 139C81.8874 139 81.8262 139.015 81.7707 139.042L79.5342 140.332C79.4368 140.388 79.446 140.481 79.5342 140.541L82.128 142.03C82.1822 142.058 82.2421 142.074 82.3032 142.075C82.3643 142.077 82.4249 142.065 82.4806 142.04V142.03ZM85.7564 140.137L87.9929 138.847C88.0857 138.792 88.0811 138.699 87.9929 138.638L85.376 137.154C85.3204 137.126 85.2593 137.112 85.1973 137.112C85.1354 137.112 85.0742 137.126 85.0187 137.154L82.7822 138.444C82.6848 138.499 82.694 138.592 82.7822 138.652L85.3713 140.146C85.4316 140.177 85.4988 140.191 85.5663 140.188C85.6339 140.185 85.6994 140.164 85.7564 140.128V140.137ZM89.0276 138.249L91.2641 136.959C91.3616 136.903 91.3523 136.81 91.2641 136.75L88.675 135.256C88.6202 135.229 88.5599 135.214 88.4987 135.214C88.4375 135.214 88.3771 135.229 88.3224 135.256L86.0812 136.546C85.9884 136.601 85.9931 136.694 86.0812 136.755L88.6704 138.272C88.7259 138.299 88.787 138.314 88.849 138.314C88.9109 138.314 88.9721 138.299 89.0276 138.272V138.249ZM77.2049 137.39L74.9638 138.68C74.871 138.736 74.8756 138.829 74.9638 138.889L77.5529 140.383C77.6085 140.41 77.6696 140.425 77.7316 140.425C77.7935 140.425 77.8546 140.41 77.9102 140.383L80.1467 139.089C80.2441 139.033 80.2395 138.94 80.1467 138.884L77.5576 137.386C77.5016 137.361 77.4407 137.35 77.3796 137.352C77.3185 137.354 77.2588 137.371 77.2049 137.4V137.39ZM80.4761 135.502L78.235 136.792C78.1422 136.847 78.1468 136.94 78.235 137.001L80.8241 138.495C80.8794 138.523 80.9406 138.538 81.0028 138.538C81.0649 138.538 81.1262 138.523 81.1814 138.495L83.4179 137.205C83.5153 137.149 83.5107 137.056 83.4179 136.996L80.8288 135.502C80.7731 135.477 80.7125 135.464 80.6514 135.466C80.5903 135.467 80.5304 135.483 80.4761 135.511V135.502ZM93.5609 127.943L91.3244 129.238C91.227 129.293 91.2363 129.386 91.3244 129.442L93.9136 130.936C93.968 130.965 94.0285 130.979 94.0899 130.979C94.1513 130.979 94.2118 130.965 94.2662 130.936L96.5073 129.641C96.6001 129.59 96.5955 129.498 96.5073 129.437L93.9182 127.943C93.8619 127.917 93.8004 127.905 93.7385 127.906C93.6765 127.908 93.6158 127.924 93.5609 127.953V127.943ZM90.3129 129.832L88.0764 131.126C87.979 131.182 87.9883 131.275 88.0764 131.33L90.6609 132.829C90.7165 132.857 90.7776 132.871 90.8396 132.871C90.9015 132.871 90.9626 132.857 91.0182 132.829L93.2593 131.539C93.3521 131.484 93.3475 131.391 93.2593 131.33L90.6702 129.836C90.6113 129.806 90.5457 129.79 90.4794 129.791C90.413 129.792 90.3479 129.809 90.2897 129.841L90.3129 129.832ZM96.86 126.055L94.6188 127.349C94.526 127.405 94.5307 127.498 94.6188 127.553L97.208 129.048C97.2632 129.076 97.3244 129.091 97.3866 129.091C97.4487 129.091 97.51 129.076 97.5652 129.048L99.8017 127.753C99.8991 127.702 99.8899 127.609 99.8017 127.549L97.2126 126.055C97.1545 126.024 97.0893 126.008 97.0234 126.01C96.9576 126.011 96.8932 126.03 96.8368 126.064L96.86 126.055ZM83.7473 133.632L81.5108 134.922C81.4134 134.977 81.418 135.07 81.5108 135.131L84.1 136.625C84.1555 136.652 84.2166 136.666 84.2786 136.666C84.3406 136.666 84.4017 136.652 84.4572 136.625L86.6984 135.335C86.7912 135.279 86.7865 135.186 86.6984 135.126L84.1046 133.632C84.049 133.604 83.9879 133.59 83.926 133.59C83.864 133.59 83.8029 133.604 83.7473 133.632ZM86.9953 131.743L84.7588 133.033C84.6614 133.089 84.666 133.182 84.7588 133.242L87.348 134.736C87.4035 134.764 87.4646 134.778 87.5266 134.778C87.5885 134.778 87.6497 134.764 87.7052 134.736L89.9464 133.446C90.0392 133.391 90.0345 133.298 89.9464 133.237L87.3572 131.743C87.3051 131.716 87.2476 131.702 87.1889 131.7C87.1303 131.698 87.072 131.71 87.0185 131.734L86.9953 131.743ZM84.6057 145.079L86.8468 143.784C86.9396 143.729 86.935 143.636 86.8468 143.58L84.2577 142.081C84.2022 142.054 84.141 142.04 84.0791 142.04C84.0171 142.04 83.956 142.054 83.9004 142.081L81.664 143.376C81.5665 143.432 81.5712 143.524 81.664 143.585L84.2484 145.079C84.3077 145.109 84.3735 145.123 84.4398 145.122C84.5062 145.12 84.5711 145.102 84.6289 145.069L84.6057 145.079ZM65.424 143.13L62.8395 141.636C62.7842 141.607 62.723 141.593 62.6608 141.593C62.5987 141.593 62.5375 141.607 62.4822 141.636L60.2457 142.912C60.1529 142.963 60.1576 143.056 60.2457 143.116L62.8348 144.61C62.8901 144.639 62.9513 144.653 63.0135 144.653C63.0756 144.653 63.1369 144.639 63.1921 144.61L65.4286 143.316C65.54 143.278 65.5307 143.186 65.424 143.13ZM70.3284 144.568L67.744 143.074C67.6887 143.046 67.6275 143.031 67.5653 143.031C67.5032 143.031 67.4419 143.046 67.3867 143.074L63.9438 145.065C63.851 145.121 63.8556 145.209 63.9438 145.269L66.5329 146.763C66.5882 146.792 66.6494 146.806 66.7116 146.806C66.7737 146.806 66.835 146.792 66.8902 146.763L70.3331 144.773C70.4398 144.717 70.4352 144.629 70.3331 144.568H70.3284ZM61.4568 140.239L58.8723 138.736C58.8167 138.708 58.7556 138.694 58.6937 138.694C58.6317 138.694 58.5706 138.708 58.515 138.736L55.7589 140.327C55.6614 140.383 55.6707 140.476 55.7589 140.536L58.3433 142.03C58.3989 142.058 58.46 142.072 58.522 142.072C58.5839 142.072 58.6451 142.058 58.7006 142.03L61.4568 140.439C61.5681 140.392 61.5635 140.3 61.4614 140.239H61.4568ZM63.568 139.019C63.6232 139.047 63.6845 139.062 63.7466 139.062C63.8088 139.062 63.87 139.047 63.9253 139.019L66.1617 137.724C66.2592 137.669 66.2499 137.581 66.1617 137.52L63.568 136.035C63.5127 136.007 63.4515 135.992 63.3893 135.992C63.3272 135.992 63.2659 136.007 63.2107 136.035L60.9696 137.344C60.8768 137.4 60.8814 137.488 60.9696 137.548L63.568 139.019ZM74.8896 146.206L72.3004 144.712C72.2452 144.684 72.184 144.669 72.1218 144.669C72.0597 144.669 71.9984 144.684 71.9432 144.712L67.6372 147.199C67.5444 147.255 67.5491 147.348 67.6372 147.403L70.2264 148.897C70.2816 148.926 70.3429 148.941 70.405 148.941C70.4672 148.941 70.5284 148.926 70.5836 148.897L74.8849 146.41C75.0009 146.355 74.9963 146.267 74.8942 146.206H74.8896ZM77.0379 149.236L74.4488 147.742C74.3935 147.714 74.3323 147.699 74.2701 147.699C74.208 147.699 74.1467 147.714 74.0915 147.742L71.3353 149.334C71.2425 149.389 71.2472 149.482 71.3353 149.538L73.9244 151.037C73.98 151.064 74.0411 151.078 74.1031 151.078C74.165 151.078 74.2262 151.064 74.2817 151.037L77.0332 149.445C77.1492 149.408 77.1446 149.297 77.024 149.236H77.0379ZM87.8908 124.974C87.9461 125.002 88.0073 125.017 88.0695 125.017C88.1316 125.017 88.1929 125.002 88.2481 124.974L90.4892 123.679C90.582 123.628 90.5774 123.535 90.4892 123.475L87.9001 121.981C87.8449 121.952 87.7836 121.937 87.7215 121.937C87.6593 121.937 87.5981 121.952 87.5428 121.981L85.3064 123.275C85.2089 123.331 85.2182 123.424 85.3064 123.48L87.8908 124.974ZM81.3484 128.755C81.404 128.783 81.4651 128.797 81.5271 128.797C81.589 128.797 81.6502 128.783 81.7057 128.755L83.9468 127.465C84.0396 127.41 84.035 127.317 83.9468 127.257L81.3577 125.762C81.3022 125.735 81.241 125.721 81.1791 125.721C81.1171 125.721 81.056 125.735 81.0004 125.762L78.764 127.057C78.6665 127.113 78.6712 127.205 78.764 127.261L81.3484 128.755ZM66.8392 137.13C66.8944 137.159 66.9557 137.174 67.0178 137.174C67.08 137.174 67.1412 137.159 67.1965 137.13L69.4329 135.836C69.5304 135.78 69.5257 135.687 69.4329 135.632L66.8438 134.138C66.7886 134.109 66.7273 134.094 66.6652 134.094C66.603 134.094 66.5418 134.109 66.4865 134.138L64.2454 135.432C64.1526 135.483 64.1573 135.576 64.2454 135.636L66.8392 137.13ZM84.6196 126.862C84.6749 126.891 84.7361 126.905 84.7983 126.905C84.8604 126.905 84.9217 126.891 84.9769 126.862L87.218 125.568C87.3108 125.517 87.3062 125.424 87.218 125.363L84.6196 123.888C84.5641 123.86 84.503 123.846 84.441 123.846C84.379 123.846 84.3179 123.86 84.2624 123.888L82.0259 125.182C81.9284 125.238 81.9331 125.331 82.0259 125.387L84.6196 126.862ZM78.0772 130.644C78.1328 130.671 78.1939 130.685 78.2559 130.685C78.3178 130.685 78.379 130.671 78.4345 130.644L80.6756 129.354C80.7684 129.298 80.7638 129.205 80.6756 129.145L78.0865 127.651C78.0313 127.622 77.97 127.608 77.9079 127.608C77.8457 127.608 77.7845 127.622 77.7292 127.651L75.4881 128.941C75.3953 128.997 75.4 129.089 75.4881 129.15L78.0772 130.644ZM78.8336 149.477C78.7783 149.449 78.7171 149.434 78.6549 149.434C78.5928 149.434 78.5315 149.449 78.4763 149.477L75.0334 151.463C74.9406 151.519 74.9452 151.612 75.0334 151.672L77.6225 153.166C77.6781 153.194 77.7392 153.208 77.8012 153.208C77.8631 153.208 77.9242 153.194 77.9798 153.166L81.4227 151.18C81.5155 151.125 81.5108 151.032 81.4227 150.972L78.8336 149.477ZM73.3862 133.353C73.4414 133.382 73.5027 133.397 73.5648 133.397C73.627 133.397 73.6882 133.382 73.7435 133.353L75.9846 132.064C76.0774 132.008 76.0728 131.915 75.9846 131.855L73.3816 130.384C73.326 130.356 73.2649 130.342 73.2029 130.342C73.141 130.342 73.0798 130.356 73.0243 130.384L70.7878 131.674C70.6904 131.729 70.695 131.822 70.7878 131.883L73.3862 133.353ZM70.1382 135.242C70.1938 135.269 70.2549 135.284 70.3168 135.284C70.3788 135.284 70.4399 135.269 70.4955 135.242L72.732 133.947C72.8294 133.892 72.8248 133.799 72.732 133.743L70.1104 132.24C70.0551 132.211 69.9939 132.197 69.9317 132.197C69.8696 132.197 69.8083 132.211 69.7531 132.24L67.512 133.53C67.4192 133.585 67.4238 133.678 67.512 133.739L70.1382 135.242ZM139.478 114.483C139.423 114.455 139.362 114.441 139.3 114.441C139.238 114.441 139.177 114.455 139.121 114.483L133.609 117.666C133.516 117.721 133.521 117.814 133.609 117.874L136.198 119.369C136.253 119.396 136.315 119.41 136.376 119.41C136.438 119.41 136.5 119.396 136.555 119.369L142.063 116.185C142.16 116.134 142.156 116.042 142.063 115.981L139.478 114.483ZM132.245 118.659C132.189 118.63 132.128 118.615 132.066 118.615C132.004 118.615 131.943 118.63 131.887 118.659L129.651 119.953C129.553 120.009 129.558 120.102 129.651 120.157L132.24 121.651C132.295 121.68 132.356 121.695 132.419 121.695C132.481 121.695 132.542 121.68 132.597 121.651L134.838 120.357C134.931 120.306 134.926 120.213 134.838 120.153L132.245 118.659ZM87.9233 143.176L90.1644 141.886C90.2572 141.831 90.2526 141.738 90.1644 141.678L87.5753 140.184C87.5198 140.156 87.4586 140.142 87.3967 140.142C87.3347 140.142 87.2736 140.156 87.218 140.184L84.9816 141.473C84.8841 141.529 84.8934 141.622 84.9816 141.682L87.5707 143.176C87.6221 143.201 87.6784 143.214 87.7354 143.214C87.7924 143.214 87.8487 143.201 87.9001 143.176H87.9233ZM125.702 122.436C125.647 122.407 125.586 122.392 125.524 122.392C125.461 122.392 125.4 122.407 125.345 122.436L123.104 123.725C123.011 123.781 123.016 123.874 123.104 123.934L125.693 125.428C125.748 125.456 125.81 125.47 125.872 125.47C125.933 125.47 125.995 125.456 126.05 125.428L128.287 124.138C128.384 124.083 128.379 123.99 128.287 123.93L125.702 122.436ZM142.75 112.594C142.694 112.566 142.633 112.551 142.571 112.551C142.509 112.551 142.447 112.566 142.392 112.594L140.128 113.879C140.035 113.935 140.04 114.028 140.128 114.084L142.717 115.578C142.772 115.606 142.834 115.621 142.896 115.621C142.958 115.621 143.019 115.606 143.074 115.578L145.311 114.283C145.408 114.232 145.404 114.139 145.311 114.079L142.75 112.594ZM148.61 112.2L142.299 108.576C142.244 108.547 142.183 108.533 142.121 108.533C142.059 108.533 141.997 108.547 141.942 108.576L139.706 109.87C139.608 109.921 139.613 110.014 139.706 110.075L146.002 113.68C146.057 113.708 146.119 113.723 146.181 113.723C146.243 113.723 146.304 113.708 146.359 113.68L148.601 112.385C148.693 112.348 148.689 112.26 148.587 112.2H148.61ZM113.476 129.493C113.42 129.466 113.359 129.451 113.297 129.451C113.235 129.451 113.174 129.466 113.118 129.493L110.362 131.085C110.265 131.136 110.274 131.228 110.362 131.289L112.951 132.783C113.007 132.811 113.068 132.826 113.13 132.826C113.192 132.826 113.254 132.811 113.309 132.783L116.06 131.191C116.158 131.136 116.153 131.043 116.06 130.987L113.476 129.493ZM121.74 124.723C121.684 124.696 121.623 124.681 121.561 124.681C121.499 124.681 121.438 124.696 121.382 124.723L117.939 126.714C117.842 126.769 117.851 126.862 117.939 126.918L120.529 128.412C120.584 128.44 120.645 128.455 120.707 128.455C120.769 128.455 120.831 128.44 120.886 128.412L124.329 126.421C124.422 126.37 124.417 126.277 124.329 126.217L121.74 124.723ZM105.899 133.869C105.843 133.84 105.782 133.825 105.72 133.825C105.658 133.825 105.597 133.84 105.541 133.869L87.0928 144.499C86.9953 144.554 87.0046 144.647 87.0928 144.708L89.6772 146.202C89.7328 146.229 89.7939 146.243 89.8559 146.243C89.9178 146.243 89.979 146.229 90.0345 146.202L108.46 135.567C108.557 135.511 108.553 135.418 108.46 135.358L105.899 133.869ZM86.4385 145.102C86.383 145.075 86.3218 145.06 86.2599 145.06C86.1979 145.06 86.1368 145.075 86.0812 145.102L83.3251 146.693C83.2323 146.745 83.2369 146.837 83.3251 146.898L85.9142 148.392C85.9694 148.42 86.0307 148.435 86.0928 148.435C86.155 148.435 86.2162 148.42 86.2715 148.392L89.0276 146.8C89.1204 146.745 89.1158 146.652 89.0276 146.596L86.4385 145.102ZM109.685 131.683C109.63 131.655 109.568 131.64 109.506 131.64C109.444 131.64 109.383 131.655 109.328 131.683L106.576 133.275C106.479 133.33 106.483 133.423 106.576 133.479L109.165 134.977C109.221 135.005 109.282 135.019 109.344 135.019C109.406 135.019 109.467 135.005 109.522 134.977L112.279 133.386C112.371 133.33 112.367 133.242 112.279 133.182L109.685 131.683ZM82.6523 147.292C82.597 147.264 82.5358 147.249 82.4736 147.249C82.4115 147.249 82.3502 147.264 82.295 147.292L79.5388 148.884C79.4414 148.939 79.4507 149.032 79.5388 149.088L82.128 150.586C82.1827 150.614 82.2431 150.628 82.3043 150.628C82.3655 150.628 82.4258 150.614 82.4806 150.586L85.2368 148.995C85.3342 148.939 85.3296 148.851 85.2368 148.791L82.6523 147.292ZM117.262 127.308C117.206 127.28 117.145 127.266 117.083 127.266C117.021 127.266 116.96 127.28 116.905 127.308L114.144 128.89C114.051 128.945 114.056 129.038 114.144 129.099L116.733 130.593C116.788 130.621 116.85 130.636 116.912 130.636C116.974 130.636 117.035 130.621 117.09 130.593L119.847 129.006C119.939 128.95 119.935 128.857 119.847 128.797L117.262 127.308ZM128.973 120.547C128.918 120.52 128.857 120.505 128.795 120.505C128.733 120.505 128.672 120.52 128.616 120.547L126.375 121.842C126.282 121.897 126.287 121.99 126.375 122.046L128.964 123.545C129.02 123.572 129.081 123.586 129.143 123.586C129.205 123.586 129.266 123.572 129.321 123.545L131.558 122.255C131.655 122.199 131.651 122.106 131.558 122.046L128.973 120.547ZM136.142 115.341L138.379 114.046C138.476 113.995 138.471 113.903 138.379 113.842L135.79 112.348C135.734 112.32 135.673 112.305 135.611 112.305C135.549 112.305 135.487 112.32 135.432 112.348L133.168 113.633C133.075 113.689 133.08 113.782 133.168 113.838L135.757 115.332C135.812 115.362 135.874 115.379 135.937 115.381C136 115.383 136.062 115.369 136.119 115.341H136.142ZM121.512 115.248L123.753 113.954C123.846 113.898 123.842 113.805 123.753 113.749L121.164 112.255C121.109 112.227 121.048 112.212 120.986 112.212C120.923 112.212 120.862 112.227 120.807 112.255L118.57 113.545C118.473 113.601 118.478 113.694 118.57 113.754L121.16 115.248C121.211 115.271 121.268 115.283 121.324 115.283C121.381 115.283 121.437 115.271 121.489 115.248H121.512ZM114.088 128.069L120.631 124.287C120.723 124.236 120.719 124.143 120.631 124.083L118.042 122.589C117.986 122.56 117.925 122.545 117.863 122.545C117.801 122.545 117.74 122.56 117.684 122.589L111.142 126.366C111.044 126.421 111.054 126.514 111.142 126.574L113.731 128.069C113.786 128.094 113.845 128.106 113.906 128.106C113.966 128.105 114.025 128.091 114.079 128.064L114.088 128.069ZM132.5 117.22C132.555 117.249 132.616 117.264 132.678 117.264C132.741 117.264 132.802 117.249 132.857 117.22L135.094 115.93C135.191 115.875 135.182 115.782 135.094 115.721L132.509 114.227C132.453 114.2 132.392 114.186 132.33 114.186C132.268 114.186 132.207 114.2 132.152 114.227L129.887 115.536C129.795 115.592 129.799 115.684 129.887 115.74L132.5 117.22ZM129.159 115.095L131.395 113.801C131.493 113.749 131.488 113.657 131.395 113.596L128.811 112.102C128.756 112.074 128.694 112.059 128.632 112.059C128.57 112.059 128.509 112.074 128.454 112.102L126.208 113.388C126.115 113.443 126.12 113.536 126.208 113.592L128.797 115.086C128.851 115.115 128.911 115.131 128.972 115.133C129.034 115.134 129.094 115.121 129.15 115.095H129.159ZM110.812 129.943L113.054 128.649C113.146 128.593 113.142 128.5 113.054 128.444L110.432 126.964C110.377 126.936 110.315 126.921 110.253 126.921C110.191 126.921 110.13 126.936 110.075 126.964L107.838 128.259C107.741 128.31 107.75 128.403 107.838 128.463L110.423 129.957C110.481 129.988 110.547 130.005 110.613 130.005C110.679 130.005 110.745 129.988 110.803 129.957L110.812 129.943ZM125.28 121.396C125.335 121.425 125.396 121.44 125.459 121.44C125.521 121.44 125.582 121.425 125.637 121.396L127.874 120.102C127.971 120.051 127.966 119.958 127.874 119.897L125.285 118.403C125.229 118.375 125.168 118.36 125.106 118.36C125.044 118.36 124.983 118.375 124.927 118.403L122.654 119.712C122.561 119.768 122.566 119.86 122.654 119.916L125.28 121.396ZM94.4704 139.399L96.7068 138.109C96.8043 138.054 96.795 137.961 96.7068 137.901L94.0852 136.416C94.03 136.387 93.9687 136.373 93.9066 136.373C93.8444 136.373 93.7832 136.387 93.728 136.416L91.4868 137.706C91.394 137.761 91.3987 137.854 91.4868 137.915L94.076 139.409C94.1341 139.437 94.1981 139.451 94.2627 139.449C94.3273 139.448 94.3905 139.431 94.4472 139.399H94.4704ZM97.7184 137.511L99.9548 136.221C100.052 136.165 100.048 136.073 99.9548 136.012L97.3657 134.518C97.3102 134.491 97.249 134.476 97.1871 134.476C97.1251 134.476 97.064 134.491 97.0084 134.518L94.7673 135.813C94.6745 135.868 94.6792 135.961 94.7673 136.017L97.3564 137.511C97.4123 137.54 97.4744 137.555 97.5374 137.555C97.6004 137.555 97.6625 137.54 97.7184 137.511ZM91.176 141.288L93.4124 139.998C93.5099 139.942 93.5006 139.849 93.4124 139.789L90.8233 138.295C90.7678 138.268 90.7066 138.253 90.6447 138.253C90.5827 138.253 90.5216 138.268 90.466 138.295L88.2296 139.585C88.1368 139.641 88.1414 139.733 88.2296 139.794L90.8187 141.288C90.8742 141.315 90.9354 141.33 90.9973 141.33C91.0593 141.33 91.1204 141.315 91.176 141.288ZM104.261 133.734L106.502 132.439C106.595 132.384 106.59 132.296 106.502 132.235L103.913 130.741C103.858 130.713 103.796 130.698 103.734 130.698C103.672 130.698 103.611 130.713 103.555 130.741L101.319 132.036C101.222 132.091 101.226 132.18 101.319 132.24L103.908 133.734C103.963 133.762 104.023 133.776 104.084 133.776C104.146 133.776 104.206 133.762 104.261 133.734ZM101.013 135.622L103.249 134.328C103.347 134.277 103.342 134.184 103.249 134.124L100.66 132.63C100.605 132.601 100.544 132.586 100.481 132.586C100.419 132.586 100.358 132.601 100.303 132.63L98.0617 133.924C97.9689 133.98 97.9735 134.073 98.0617 134.128L100.651 135.622C100.704 135.648 100.762 135.661 100.82 135.661C100.879 135.661 100.937 135.648 100.99 135.622H101.013ZM107.555 131.845L109.796 130.551C109.889 130.495 109.884 130.402 109.796 130.347L107.184 128.853C107.129 128.824 107.067 128.809 107.005 128.809C106.943 128.809 106.882 128.824 106.827 128.853L104.59 130.147C104.493 130.198 104.497 130.291 104.59 130.351L107.179 131.845C107.234 131.873 107.294 131.888 107.356 131.888C107.417 131.888 107.477 131.873 107.532 131.845H107.555ZM122.496 103.899C122.551 103.927 122.612 103.942 122.675 103.942C122.737 103.942 122.798 103.927 122.853 103.899L125.094 102.604C125.187 102.549 125.183 102.46 125.094 102.4L124.403 102.001C124.348 101.973 124.286 101.958 124.224 101.958C124.162 101.958 124.101 101.973 124.046 102.001L121.809 103.291C121.716 103.347 121.721 103.439 121.809 103.5L122.496 103.899ZM106.4 114.292C106.455 114.32 106.516 114.334 106.578 114.334C106.64 114.334 106.702 114.32 106.757 114.292L108.994 113.002C109.091 112.947 109.086 112.854 108.994 112.794L106.409 111.3C106.354 111.271 106.293 111.256 106.23 111.256C106.168 111.256 106.107 111.271 106.052 111.3L103.811 112.589C103.718 112.645 103.723 112.738 103.811 112.798L106.4 114.292ZM112.942 110.511C112.997 110.539 113.059 110.554 113.121 110.554C113.183 110.554 113.244 110.539 113.299 110.511L115.536 109.225C115.633 109.174 115.629 109.082 115.536 109.021L112.947 107.527C112.891 107.5 112.83 107.486 112.768 107.486C112.706 107.486 112.645 107.5 112.59 107.527L110.348 108.822C110.256 108.877 110.26 108.97 110.348 109.026L112.942 110.511ZM102.405 116.598C102.46 116.626 102.521 116.64 102.583 116.64C102.645 116.64 102.706 116.626 102.762 116.598L104.999 115.309C105.096 115.253 105.087 115.16 104.999 115.1L102.414 113.606C102.358 113.578 102.297 113.564 102.235 113.564C102.173 113.564 102.112 113.578 102.057 113.606L99.8156 114.896C99.7228 114.951 99.7275 115.044 99.8156 115.104L102.405 116.598ZM109.671 112.422C109.727 112.45 109.788 112.464 109.85 112.464C109.912 112.464 109.973 112.45 110.028 112.422L112.265 111.133C112.362 111.077 112.358 110.984 112.265 110.924L109.676 109.43C109.62 109.402 109.559 109.388 109.497 109.388C109.435 109.388 109.374 109.402 109.318 109.43L107.077 110.724C106.984 110.78 106.989 110.873 107.077 110.928L109.671 112.422ZM95.8624 120.394C95.9171 120.421 95.9775 120.436 96.0387 120.436C96.0999 120.436 96.1602 120.421 96.215 120.394L98.4561 119.099C98.5489 119.044 98.5443 118.951 98.4561 118.895L95.8577 117.392C95.8022 117.364 95.741 117.35 95.6791 117.35C95.6171 117.35 95.556 117.364 95.5004 117.392L93.264 118.673C93.1665 118.728 93.1758 118.821 93.264 118.881L95.8624 120.394ZM99.1104 118.505C99.1656 118.534 99.2268 118.549 99.289 118.549C99.3511 118.549 99.4124 118.534 99.4676 118.505L101.704 117.216C101.802 117.16 101.792 117.067 101.704 117.007L99.115 115.513C99.0602 115.485 98.9999 115.471 98.9387 115.471C98.8775 115.471 98.8171 115.485 98.7624 115.513L96.5212 116.803C96.4284 116.858 96.4331 116.951 96.5212 117.011L99.1104 118.505ZM115.93 107.694C115.986 107.723 116.047 107.738 116.109 107.738C116.171 107.738 116.232 107.723 116.288 107.694L118.524 106.4C118.622 106.349 118.617 106.256 118.524 106.196L117.856 105.792C117.8 105.764 117.739 105.75 117.677 105.75C117.615 105.75 117.554 105.764 117.499 105.792L115.262 107.082C115.165 107.137 115.169 107.23 115.262 107.291L115.93 107.694ZM125.744 102.029C125.799 102.057 125.86 102.072 125.923 102.072C125.985 102.072 126.046 102.057 126.101 102.029L128.342 100.734C128.435 100.679 128.43 100.586 128.342 100.53L127.656 100.131C127.6 100.104 127.539 100.089 127.477 100.089C127.415 100.089 127.354 100.104 127.298 100.131L125.057 101.426C124.964 101.481 124.969 101.574 125.057 101.63L125.744 102.029ZM131.182 105.17C131.238 105.198 131.299 105.212 131.361 105.212C131.423 105.212 131.484 105.198 131.539 105.17L133.78 103.88C133.873 103.825 133.869 103.732 133.78 103.671L131.191 102.177C131.136 102.15 131.075 102.136 131.013 102.136C130.951 102.136 130.89 102.15 130.834 102.177L128.611 103.472C128.514 103.528 128.519 103.62 128.611 103.681L131.182 105.17ZM139.362 113.471L141.599 112.177C141.696 112.121 141.692 112.033 141.599 111.972L139.01 110.478C138.954 110.45 138.893 110.435 138.831 110.435C138.769 110.435 138.708 110.45 138.652 110.478L136.416 111.745C136.323 111.801 136.328 111.889 136.416 111.949L139.005 113.443C139.063 113.478 139.129 113.497 139.196 113.499C139.264 113.5 139.331 113.484 139.39 113.453L139.362 113.471ZM119.248 105.792C119.303 105.82 119.364 105.835 119.427 105.835C119.489 105.835 119.55 105.82 119.605 105.792L121.842 104.497C121.939 104.446 121.935 104.354 121.842 104.293L121.15 103.894C121.095 103.867 121.034 103.852 120.972 103.852C120.91 103.852 120.849 103.867 120.793 103.894L118.557 105.184C118.459 105.24 118.468 105.333 118.557 105.393L119.248 105.792ZM92.5912 122.264C92.6464 122.292 92.7076 122.307 92.7698 122.307C92.8319 122.307 92.8932 122.292 92.9484 122.264L95.1895 120.969C95.2823 120.914 95.2777 120.821 95.1895 120.765L92.6004 119.271C92.5452 119.243 92.4839 119.228 92.4218 119.228C92.3596 119.228 92.2984 119.243 92.2432 119.271L90.016 120.566C89.9185 120.617 89.9278 120.709 90.016 120.77L92.5912 122.264Z" fill="#455A64"/>
<path d="M107.101 141.905L129.192 129.15C129.565 128.96 129.979 128.861 130.398 128.861C130.817 128.861 131.231 128.96 131.604 129.15L144.272 136.462C144.94 136.847 144.94 137.469 144.272 137.854L122.181 150.61C121.807 150.8 121.393 150.899 120.974 150.899C120.555 150.899 120.142 150.8 119.768 150.61L107.101 143.297C106.437 142.912 106.437 142.286 107.101 141.905Z" fill="#263238"/>
<path d="M147.726 80.5652H147.699L143.926 78.3936C143.708 78.2962 143.388 78.3936 142.998 78.6813C139.49 81.3632 134.771 82.1984 130.934 80.9735C130.686 80.7418 130.451 80.4971 130.229 80.2404L130.159 80.1615C130.049 80.0333 129.917 79.925 129.77 79.8413L129.705 79.8042L125.928 77.6373C125.496 77.4332 125.106 77.6373 124.847 78.2776C121.2 87.3396 113.427 96.5221 108.245 98.8189C107.853 98.9948 107.504 99.2545 107.224 99.5799C106.851 99.9844 106.646 100.515 106.648 101.065L107.396 121.411C107.396 127.29 109.878 133.498 114.94 136.519L118.847 138.774L118.917 138.811C121.029 139.997 123.417 140.604 125.839 140.57C126.382 140.57 126.935 140.546 127.505 140.491C128.615 140.308 129.644 139.794 130.456 139.015C141.783 127.318 147.29 111.486 147.29 102.726L148.014 81.4189C148.042 80.9596 147.931 80.6765 147.726 80.5652Z" fill="#6A8E91"/>
<path d="M148.016 81.4227L147.269 102.706C147.269 111.467 141.761 127.298 130.435 138.996C129.623 139.775 128.594 140.289 127.484 140.471C126.913 140.527 126.361 140.55 125.818 140.55C123.396 140.584 121.008 139.978 118.895 138.792L118.826 138.755L118.691 138.671C113.629 135.65 111.146 129.442 111.146 123.563L110.432 103.217C110.429 102.667 110.635 102.136 111.007 101.732C111.288 101.407 111.636 101.147 112.028 100.971C117.211 98.6511 124.983 89.4917 128.63 80.4298C128.89 79.7894 129.284 79.5806 129.716 79.7848L129.781 79.8219C129.928 79.9056 130.06 80.0138 130.17 80.1421L130.24 80.221C134.11 84.7264 141.719 84.7218 146.8 80.8334C147.185 80.5411 147.505 80.4483 147.728 80.5458H147.756C147.932 80.6803 148.044 80.9634 148.016 81.4227Z" fill="#6A8E91"/>
<path opacity="0.4" d="M147.705 80.5411C147.487 80.4437 147.167 80.5411 146.777 80.8288C141.993 84.4898 134.964 84.7078 130.932 80.9494C134.787 82.179 139.497 81.3438 142.996 78.6573C143.381 78.365 143.701 78.2722 143.924 78.3696L147.705 80.5411Z" fill="white"/>
<path opacity="0.4" d="M129.693 79.7802C129.261 79.576 128.867 79.7802 128.607 80.4251C124.96 89.487 117.188 98.6696 112.005 100.966C111.613 101.142 111.264 101.402 110.984 101.727C110.887 101.838 110.8 101.958 110.724 102.085L106.957 99.9085C107.032 99.784 107.117 99.6661 107.212 99.5558C107.264 99.4952 107.32 99.4379 107.379 99.3842L107.444 99.3192L107.509 99.2589C107.723 99.0681 107.966 98.9116 108.228 98.7949C113.411 96.4981 121.183 87.3155 124.83 78.2536C125.09 77.6133 125.479 77.4091 125.911 77.6133L129.693 79.7802Z" fill="white"/>
<path d="M107.383 99.3665C107.4 99.3472 107.419 99.3297 107.439 99.3145L107.383 99.3705C107.383 99.3705 107.379 99.3665 107.383 99.3665Z" fill="#6A8E91"/>
<path opacity="0.15" d="M107.439 99.296L107.383 99.352C107.4 99.3312 107.419 99.3124 107.439 99.296Z" fill="black"/>
<path opacity="0.15" d="M118.905 138.787L118.835 138.755L114.928 136.495C109.866 133.474 107.383 127.266 107.383 121.387L106.636 101.041C106.628 100.64 106.74 100.246 106.957 99.9085L110.724 102.085C110.511 102.421 110.401 102.813 110.409 103.212L111.156 123.559C111.156 129.437 113.638 135.623 118.7 138.666L118.835 138.75L118.905 138.787Z" fill="black"/>
<path d="M132.24 120.069L126.208 123.549L127.136 112.641C126.417 112.26 125.953 111.323 125.953 109.973C125.953 107.574 127.414 104.78 129.201 103.741C130.987 102.702 132.449 103.806 132.449 106.205C132.413 107.629 132.007 109.018 131.27 110.237L132.24 120.069Z" fill="#455A64"/>
<path d="M132.231 120.069L126.769 116.914L126.203 123.549L132.231 120.069Z" fill="#37474F"/>
<path d="M129.219 103.741C128.036 104.423 127.011 105.852 126.435 107.43L131.312 110.237C132.048 109.018 132.454 107.629 132.491 106.205C132.477 103.806 131.02 102.702 129.219 103.741Z" fill="#37474F"/>
<path d="M53.7869 183.438V185.247C53.7869 187.382 55.1789 189.512 58 191.14C62.2409 193.585 68.4678 194.184 73.6878 192.936L78.532 195.72L82.244 194.875L84.7821 196.346L84.9213 199.413L86.3133 200.207L89.7515 200.508L92.22 201.9V203.631L95.3241 205.417H103.212L106.038 203.789V201.961L80.8241 189.233C81.8938 188.186 82.5186 186.767 82.5688 185.271V183.415C82.1883 181.642 80.7128 180.728 78.3603 179.368C72.7413 176.12 63.6376 176.12 58.0185 179.368C55.4758 180.853 54.0421 181.531 53.7869 183.438ZM61.5078 181.317C62.4008 180.864 63.388 180.628 64.3893 180.628C65.3905 180.628 66.3777 180.864 67.2707 181.317C68.8622 182.245 68.8622 183.725 67.2707 184.644C66.3777 185.097 65.3905 185.333 64.3893 185.333C63.388 185.333 62.4008 185.097 61.5078 184.644C59.9163 183.744 59.9163 182.236 61.5078 181.317Z" fill="#6A8E91"/>
<path opacity="0.1" d="M53.7869 183.438V185.247C53.7869 187.382 55.1789 189.512 58 191.14C62.2409 193.585 68.4678 194.184 73.6878 192.936L78.532 195.72L82.244 194.875L84.7821 196.346L84.9213 199.413L86.3133 200.207L89.7515 200.508L92.22 201.9V203.631L95.3241 205.417H103.212L106.038 203.789V201.961L80.8241 189.233C81.8938 188.186 82.5186 186.767 82.5688 185.271V183.415C82.1883 181.642 80.7128 180.728 78.3603 179.368C72.7413 176.12 63.6376 176.12 58.0185 179.368C55.4758 180.853 54.0421 181.531 53.7869 183.438ZM61.5078 181.317C62.4008 180.864 63.388 180.628 64.3893 180.628C65.3905 180.628 66.3777 180.864 67.2707 181.317C68.8622 182.245 68.8622 183.725 67.2707 184.644C66.3777 185.097 65.3905 185.333 64.3893 185.333C63.388 185.333 62.4008 185.097 61.5078 184.644C59.9163 183.744 59.9163 182.236 61.5078 181.317Z" fill="black"/>
<path d="M57.9988 189.312C62.2398 191.762 68.4667 192.361 73.6867 191.108L78.5308 193.892L82.2428 193.052L84.7809 194.518L84.9201 197.59L86.3121 198.379L89.7504 198.68L92.4323 200.174L92.2188 201.789L95.323 203.58H103.211L106.037 201.951L80.823 187.391C83.7926 184.241 82.976 180.218 78.3592 177.554C72.7401 174.306 63.6364 174.306 58.0174 177.554C52.3984 180.802 52.3798 186.064 57.9988 189.312ZM61.5067 179.489C62.3997 179.036 63.3869 178.8 64.3881 178.8C65.3894 178.8 66.3766 179.036 67.2696 179.489C68.8611 180.417 68.8611 181.897 67.2696 182.816C66.3766 183.269 65.3894 183.505 64.3881 183.505C63.3869 183.505 62.3997 183.269 61.5067 182.816C59.9152 181.888 59.9152 180.403 61.5067 179.485V179.489Z" fill="#6A8E91"/>
<path opacity="0.3" d="M68.1709 190.147C64.6027 190.147 61.2759 189.358 58.7981 187.929C56.6266 186.676 55.3784 185.039 55.3784 183.438C55.3784 181.837 56.6266 180.19 58.7981 178.942C61.2759 177.512 64.6027 176.724 68.1709 176.724C71.739 176.724 75.0659 177.512 77.5437 178.942C79.7152 180.199 80.9634 181.832 80.9634 183.438C80.9634 185.043 79.7152 186.686 77.5437 187.929C75.0659 189.358 71.739 190.147 68.1709 190.147ZM68.1709 177.364C64.7141 177.364 61.4986 178.12 59.1136 179.494C57.1463 180.631 56.0187 182.069 56.0187 183.438C56.0187 184.807 57.1463 186.222 59.1136 187.377C61.4986 188.769 64.7141 189.512 68.1709 189.512C71.6277 189.512 74.8432 188.751 77.2282 187.377C79.1955 186.24 80.323 184.802 80.323 183.438C80.323 182.074 79.1955 180.654 77.2282 179.494C74.8432 178.12 71.6277 177.364 68.1709 177.364Z" fill="black"/>
<path opacity="0.1" d="M62.9927 191.168V193.024C66.5193 193.791 70.1722 193.765 73.6879 192.95V191.122C70.1699 191.926 66.5175 191.942 62.9927 191.168Z" fill="black"/>
<path opacity="0.1" d="M78.532 193.901V195.734L82.2533 194.889V193.061L78.532 193.901Z" fill="black"/>
<path opacity="0.1" d="M84.7914 194.527V196.36L84.9306 199.427V197.599L84.7914 194.527Z" fill="black"/>
<path opacity="0.1" d="M86.2994 198.388V200.221L89.7377 200.522V198.689L86.2994 198.388Z" fill="black"/>
<path opacity="0.1" d="M103.194 203.589H95.3103V205.422H103.194V203.589Z" fill="black"/>
<path opacity="0.15" d="M106.019 201.956V203.789L103.194 205.417V203.589L104.428 202.875V203.664L105.115 203.269V202.471L106.019 201.956Z" fill="black"/>
<path d="M105.115 202.471L104.428 202.875V203.664L105.115 203.269V202.471Z" fill="#6A8E91"/>
<path opacity="0.15" d="M105.115 202.471V203.269L79.2559 188.338L79.9379 187.939L105.115 202.471Z" fill="black"/>
<path opacity="0.15" d="M79.9379 187.939V188.737L79.2559 188.338L79.9379 187.939Z" fill="black"/>
<path d="M192.342 133.892C192.671 121.828 191.702 118.909 188.481 116.696L187.238 123.698C187.238 123.698 188.704 131.952 188.546 134.699C188.407 137.117 188.171 140.137 187.618 142.086C187.513 142.432 187.286 142.727 186.978 142.917C186.31 143.389 185.714 143.956 185.21 144.601C184.746 145.107 184.319 145.232 184.38 145.394C184.474 145.571 184.631 145.706 184.82 145.772C185.01 145.838 185.217 145.831 185.401 145.752C185.812 145.591 186.202 145.379 186.561 145.121C186.279 145.863 185.878 146.554 185.373 147.167C184.222 148.559 184.171 149.44 186.491 149.464C187.948 149.464 189.108 148.577 190.203 145.376C190.629 144.203 190.97 143.001 191.224 141.78C191.757 138.611 192.291 135.836 192.342 133.892Z" fill="#D6AE80"/>
<path d="M185.776 115.777C186.765 115.602 187.784 115.753 188.68 116.206C189.576 116.66 190.301 117.392 190.746 118.292C192.096 120.7 192.425 124.848 192.602 128.964C192.602 128.964 189.925 131.205 186.714 130.106L185.776 115.777Z" fill="#6A8E91"/>
<path opacity="0.7" d="M185.776 115.777C186.765 115.602 187.784 115.753 188.68 116.206C189.576 116.66 190.301 117.392 190.746 118.292C192.096 120.7 192.425 124.848 192.602 128.964C192.602 128.964 189.925 131.205 186.714 130.106L185.776 115.777Z" fill="black"/>
<path d="M190.296 182.25C190.537 182.343 190.597 182.807 190.634 183.73C190.662 184.426 190.815 185.646 189.994 185.892C189.173 186.138 187.976 186.008 187.451 185.35C186.817 184.467 186.139 183.617 185.419 182.802C184.612 181.934 183.735 181.118 183.405 179.898C183.113 178.798 183.359 178.32 184.111 178C185.145 177.536 186.769 178.997 187.581 179.225C188.277 179.42 190.05 182.157 190.296 182.25Z" fill="#263238"/>
<path d="M190.296 181.391V182.528C189.869 182.8 189.377 182.95 188.872 182.963C188.367 182.976 187.868 182.852 187.428 182.603C187.377 182.496 187.131 180.983 187.131 180.983L190.296 181.391Z" fill="#D6AE80"/>
<path d="M181.108 188.783C181.308 189.392 181.475 190.012 181.61 190.639C181.749 191.326 181.948 192.495 181.712 192.987C181.475 193.479 180.533 193.836 179.081 193.827C178.153 193.827 176.677 194.458 175.675 195.019C174.673 195.581 172.483 195.827 171.383 195.697C170.093 195.544 168.757 194.797 168.548 194.263C168.339 193.729 168.613 193.173 171.661 191.873C171.689 191.873 175.893 190.481 177.364 188.871L181.108 188.783Z" fill="#263238"/>
<path d="M181.109 187.558V188.881C181.109 189.345 180.547 190.078 179.076 190.027C178.046 189.989 177.322 189.711 177.364 188.862V187.632L181.109 187.558Z" fill="#D6AE80"/>
<path d="M191.033 166.344C190.781 164.336 190.332 162.357 189.693 160.437C189.693 160.437 190.096 155.333 190.291 150.512C190.5 145.292 190.291 138.736 190.379 137.432C190.379 137.432 173.541 134.026 173.239 140.058C172.937 146.09 173.907 161.444 174.107 164.094C174.306 166.743 174.761 169.091 175.309 173.374C175.856 177.656 177.364 187.623 177.364 187.623C177.946 187.919 178.592 188.067 179.246 188.054C179.899 188.041 180.538 187.868 181.109 187.549C181.109 187.549 182.296 175.485 182.171 172.427C182.075 170.162 181.685 167.919 181.011 165.755C181.011 165.755 181.331 160.781 181.614 156.475C181.897 152.169 182.194 150.067 182.259 148.188L182.621 148.007C182.621 148.007 182.992 155.472 183.192 158.122C183.391 160.771 183.809 163.309 184.584 168.232C185.252 172.506 187.233 181.54 187.233 181.54C189.154 182.579 190.305 181.401 190.305 181.401C190.305 181.401 191.549 170.051 191.033 166.344Z" fill="#37474F"/>
<path d="M182.259 148.178C182.259 148.178 186.342 146.16 188.384 144.35C188.384 144.35 186.486 147.023 183.995 148.211C183.995 148.211 183.108 157.491 183.113 157.296L182.598 148.164L182.259 148.178Z" fill="#263238"/>
<path d="M178.622 113.87L179.619 119.355L184.575 118.988L183.535 112.775L178.622 113.87Z" fill="#D6AE80"/>
<path d="M189.804 118.589C189.317 117.1 187.424 115.476 185.53 115.805C182.72 116.29 179.951 116.99 177.248 117.898C175.517 118.515 173.935 120.014 173.791 125.716C173.791 125.716 173.211 139.005 173.202 141.576C176.819 142.995 180.759 143.384 184.584 142.699C189.79 141.562 190.421 139.4 190.421 139.4C190.421 139.4 190.486 129.841 190.328 125.716C190.189 122.208 190.143 119.615 189.804 118.589Z" fill="#6A8E91"/>
<g opacity="0.15">
<path d="M189.804 118.589C189.317 117.1 187.424 115.476 185.53 115.805C182.72 116.29 179.951 116.99 177.248 117.898C175.517 118.515 173.935 120.014 173.791 125.716C173.791 125.716 173.211 139.005 173.202 141.576C176.819 142.995 180.759 143.384 184.584 142.699C189.79 141.562 190.421 139.4 190.421 139.4C190.421 139.4 190.486 129.841 190.328 125.716C190.189 122.208 190.143 119.615 189.804 118.589Z" fill="black"/>
</g>
<path d="M174.803 107.184C174.803 107.184 173.545 109.188 173.698 109.379C173.852 109.569 174.812 109.722 174.812 109.722L174.803 107.184Z" fill="#9A4A4D"/>
<path d="M178.287 101.658C175.671 102.27 174.937 103.444 174.784 107.634C174.622 112.005 175.1 113.369 175.684 113.944C176.083 114.334 178.236 114.357 179.318 114.033C180.668 113.629 183.716 112.469 185.104 110.242C186.737 107.616 187.103 104.103 185.261 102.706C182.663 100.739 179.355 101.407 178.287 101.658Z" fill="#D6AE80"/>
<path d="M174.812 102.748C175.413 103.624 176.261 104.301 177.248 104.692C177.749 105.263 177.475 107.476 178.357 107.848C178.357 107.848 178.737 106.224 180.102 106.4C181.466 106.576 181.702 108.312 180.862 109.393C180.023 110.474 179.211 110.084 179.211 110.084C179.211 110.084 179.303 112.404 180.357 113.675C180.357 113.675 181.526 114.028 183.66 113.522C184.969 113.211 186.792 111.527 187.535 109.768C189.108 106.056 189.145 102.73 186.774 101.788C186.482 100.094 185.127 99.3656 183.595 99.0501C180.296 98.368 178.171 100.442 175.633 100.247C174.181 100.145 173.912 101.203 174.812 102.748Z" fill="#263238"/>
<path d="M186.825 102.354L188.379 101.393C188.329 101.267 188.252 101.154 188.154 101.06C188.055 100.967 187.937 100.897 187.809 100.854C187.68 100.811 187.543 100.798 187.409 100.813C187.274 100.829 187.144 100.874 187.029 100.946C186.913 101.017 186.815 101.113 186.741 101.226C186.666 101.339 186.618 101.468 186.598 101.602C186.579 101.736 186.589 101.873 186.628 102.003C186.667 102.133 186.735 102.253 186.825 102.354Z" fill="#263238"/>
<path d="M156.294 127.772C157.106 128.134 166.706 135.224 168.2 134.398C169.694 133.572 177.373 124.603 177.373 124.603C178.022 123.601 178.367 122.432 178.367 121.239C178.367 120.045 178.022 118.877 177.373 117.875C177.373 117.875 174.914 118.339 173.624 120.278C172.334 122.218 166.776 129.201 166.776 129.201C165.402 128.514 164.032 127.818 162.664 127.113C161.542 126.528 160.414 125.948 159.314 125.322C159.005 125.178 158.714 124.999 158.447 124.788C157.904 124.25 157.983 122.932 158.011 122.245C158.011 121.916 158.011 121.587 158.057 121.257C158.103 120.853 158.182 119.865 157.454 120.181C157.316 120.246 157.196 120.345 157.106 120.468C156.994 120.619 156.906 120.787 156.846 120.965C156.711 121.392 156.753 121.86 156.628 122.292C156.613 122.355 156.583 122.414 156.54 122.464C156.475 122.514 156.394 122.539 156.312 122.533C155.254 122.501 154.252 121.016 153.765 120.213C153.596 119.83 153.317 119.507 152.962 119.285C152.387 119.011 151.691 119.401 151.315 119.921C150.862 120.604 150.677 121.43 150.795 122.241C150.893 123.351 151.387 124.388 152.187 125.164C153.396 126.263 154.785 127.145 156.294 127.772Z" fill="#D6AE80"/>
<path d="M178.176 117.587C177.118 117.708 175.359 117.786 173.633 119.74C171.601 122.032 168.952 125.744 168.952 125.744C169.222 126.842 169.804 127.838 170.627 128.614C171.45 129.389 172.48 129.91 173.592 130.115C173.592 130.115 177.225 126.403 178.232 124.343C179.239 122.283 179.406 118.97 178.176 117.587Z" fill="#6A8E91"/>
<path opacity="0.7" d="M178.176 117.587C177.118 117.708 175.359 117.786 173.633 119.74C171.601 122.032 168.952 125.744 168.952 125.744C169.222 126.842 169.804 127.838 170.627 128.614C171.45 129.389 172.48 129.91 173.592 130.115C173.592 130.115 177.225 126.403 178.232 124.343C179.239 122.283 179.406 118.97 178.176 117.587Z" fill="black"/>
</svg>
